<svg data-v-d3f97b9e="" xmlns="http://www.w3.org/2000/svg" viewBox="0 0 334 90"><!----><!----><linearGradient data-v-d3f97b9e="" gradientTransform="rotate(25)" id="c8f76c4d-bbc5-4637-930f-dbaa45d52f62" x1="0%" y1="0%" x2="100%" y2="0%"><stop data-v-d3f97b9e="" offset="0%" style="stop-color: rgb(0, 0, 0); stop-opacity: 1;"></stop><stop data-v-d3f97b9e="" offset="100%" style="stop-color: rgb(95, 225, 253); stop-opacity: 1;"></stop></linearGradient><g data-v-d3f97b9e="" id="3d1af561-8712-4cb6-b4ca-20a2367ee704" fill="url(#c8f76c4d-bbc5-4637-930f-dbaa45d52f62)" transform="matrix(6.122448921203613,0,0,6.122448921203613,120.45538330078125,-4.285713195800781)"><path d="M3.50 0.70L3.50 0.70L5.08 10.50L3.51 10.50L2.55 3.70L2.16 6.90L2.16 6.92L2.55 6.92L2.55 8.46L1.90 8.46L1.58 10.50L0.03 10.50L0.35 8.46L0 8.46L0 6.92L0.60 6.92L1.60 0.70L3.50 0.70ZM9.13 0.70L9.13 0.70L10.11 0.70L10.11 0.70L10.11 10.50L10.11 10.50L8.57 10.50L8.57 10.50L7.17 6.12L7.17 10.50L7.17 10.50L5.63 10.50L5.63 0.70L6.19 0.70L6.19 0.70L7.17 0.70L7.17 0.70L7.17 0.73L8.57 5.35L8.57 0.70L9.13 0.70L9.13 0.70ZM15.85 0.70L15.85 0.70L16.21 0.70L16.11 1.05L14.41 7.13L14.41 10.49L14.41 10.50L14.13 10.50L13.15 10.50L12.87 10.50L12.87 10.49L12.87 7.13L11.14 1.05L11.06 0.70L11.42 0.70L12.42 0.70L12.63 0.70L12.68 0.90L13.64 4.37L14.59 0.90L14.64 0.70L14.85 0.70L15.85 0.70ZM18.49 10.50L18.49 10.50L16.95 10.50L16.95 0.70L18.49 0.70L18.49 10.50ZM22.75 0.70L22.75 0.70L22.75 0.70Q22.97 0.70 23.18 0.79L23.18 0.79L23.18 0.79Q23.38 0.88 23.53 1.04L23.53 1.04L23.53 1.04Q23.67 1.19 23.77 1.40L23.77 1.40L23.77 1.40Q23.86 1.61 23.86 1.83L23.86 1.83L23.86 9.39L23.86 9.39Q23.86 9.86 23.53 10.18L23.53 10.18L23.53 10.18Q23.20 10.50 22.75 10.50L22.75 10.50L19.40 10.50L19.40 4.07L20.94 4.07L20.94 8.96L22.32 8.96L22.32 2.25L20.94 2.25L20.94 4.07L19.40 1.02L19.40 0.70L22.75 0.70ZM26.31 0.70L26.31 0.70L28.77 0.70L28.77 1.68L28.77 2.24L26.31 2.24L26.31 4.07L28.27 4.07L28.27 4.35L28.27 5.33L28.27 5.61L26.31 5.61L26.31 8.96L28.77 8.96L28.77 9.52L28.77 10.50L26.31 10.50L24.77 10.50L24.77 9.48L24.77 4.07L26.31 4.07L24.77 1.04L24.77 0.70L26.31 0.70ZM33.18 0.70L33.18 0.70L34.76 10.50L33.19 10.50L32.23 3.70L31.84 6.90L31.84 6.92L32.23 6.92L32.23 8.46L31.58 8.46L31.26 10.50L29.71 10.50L30.03 8.46L29.68 8.46L29.68 6.92L30.28 6.92L31.28 0.70L33.18 0.70Z"></path></g><linearGradient data-v-d3f97b9e="" gradientTransform="rotate(25)" id="b2cd1af7-7343-4633-a34c-c7d30d7e576f" x1="0%" y1="0%" x2="100%" y2="0%"><stop data-v-d3f97b9e="" offset="0%" style="stop-color: rgb(0, 239, 255); stop-opacity: 1;"></stop><stop data-v-d3f97b9e="" offset="100%" style="stop-color: rgb(1, 30, 32); stop-opacity: 1;"></stop></linearGradient><g data-v-d3f97b9e="" id="6b7f2e93-45dd-45a8-a508-f872a97d39a7" transform="matrix(1.0045539140701294,0,0,1.0045539140701294,0.7723042964935303,-0.000002407612555543892)" stroke="none" fill="url(#b2cd1af7-7343-4633-a34c-c7d30d7e576f)"><path d="M84.271 52.113a13.657 13.657 0 0 0 1.483-1.987c1.814-2.94 2.697-6.675 2.697-11.409V36.75c0-6.57-1.712-11.301-5.233-14.458a14.19 14.19 0 0 0-3.557-2.319c1.599-1.913 2.407-4.515 2.407-7.752v-.953c0-3.809-1.12-6.732-3.323-8.696C76.803.842 74.204 0 70.801 0c-3.405 0-6.002.842-7.947 2.572-2.205 1.963-3.323 4.887-3.323 8.696v.953c0 3.15.767 5.698 2.281 7.594-1.967 1.163-3.262 2.762-4.097 4.208-1.737 3.008-2.545 7.053-2.545 12.728 0 5.427.777 10.314 1.349 13.886.081.511.159 1.008.231 1.48h-7.544c.071-.473.15-.967.231-1.48.569-3.571 1.347-8.459 1.347-13.886 0-5.674-.808-9.72-2.545-12.728-.835-1.446-2.127-3.045-4.094-4.208 1.514-1.896 2.279-4.444 2.279-7.594v-.953c0-3.809-1.118-6.732-3.322-8.696C41.159.842 38.561 0 35.156 0c-3.405 0-6.004.842-7.947 2.572-2.204 1.963-3.322 4.887-3.322 8.696v.953c0 3.238.808 5.84 2.41 7.752a14.166 14.166 0 0 0-3.559 2.319c-3.521 3.157-5.235 7.888-5.235 14.458v1.967c0 4.734.882 8.469 2.697 11.409a14.02 14.02 0 0 0 1.483 1.99H0v4.383h57.136v21.825c0 3.812 1.106 6.732 3.286 8.689 1.937 1.733 4.549 2.579 7.982 2.579h.946c3.434 0 6.043-.846 7.981-2.579 2.182-1.957 3.286-4.877 3.286-8.689V56.499H100v-4.386H84.271zM28.27 11.268c0-5.279 2.649-6.881 6.886-6.881s6.886 1.602 6.886 6.881v.953c0 5.279-2.649 6.881-6.886 6.881S28.27 17.5 28.27 12.221v-.953zm16.502 40.848H29.72c-4.992-1.531-7.832-5.444-7.832-13.399V36.75c0-10.902 5.331-14.208 14.214-14.208h1.448c6.58 0 8.851 5.056 8.851 14.208 0 6.173-1.071 11.557-1.629 15.366zm19.145-40.848c0-5.279 2.646-6.881 6.884-6.881 4.234 0 6.884 1.602 6.884 6.881v.953c0 5.279-2.649 6.881-6.884 6.881-4.238 0-6.884-1.602-6.884-6.881v-.953zm20.152 27.448c0 7.955-2.843 11.868-7.834 13.399v26.208c0 5.282-2.582 6.885-6.885 6.885h-.946c-4.302 0-6.884-1.603-6.884-6.885V55.539c0-3.505-1.965-10.423-1.965-18.79 0-9.152 2.271-14.208 8.849-14.208h1.45c8.883 0 14.215 3.306 14.215 14.208v1.967zM2.753 10.862h.38c2.112 0 2.752 1.034 2.752 2.752v11.939c0 1.72-.641 2.754-2.752 2.754h-.38C.641 28.307 0 27.273 0 25.553V13.614c0-1.718.641-2.752 2.753-2.752zM0 4.484v.433c0 1.721.641 2.754 2.753 2.754h.38c2.112 0 2.752-1.034 2.752-2.754v-.433c0-1.72-.641-2.752-2.752-2.752h-.38C.641 1.732 0 2.765 0 4.484z"></path></g><linearGradient data-v-d3f97b9e="" gradientTransform="rotate(25)" id="610cc7ab-f813-4292-ad35-50ece605bce4" x1="0%" y1="0%" x2="100%" y2="0%"><stop data-v-d3f97b9e="" offset="0%" style="stop-color: rgb(0, 0, 0); stop-opacity: 1;"></stop><stop data-v-d3f97b9e="" offset="100%" style="stop-color: rgb(1, 216, 253); stop-opacity: 1;"></stop></linearGradient><g data-v-d3f97b9e="" id="644b5e3b-17da-4e67-9297-ec156dc2553c" fill="url(#610cc7ab-f813-4292-ad35-50ece605bce4)" transform="matrix(0.7459713816642761,0,0,0.7459713816642761,120.14208221435547,57.28466796875)"><path d="M6.03 6.54L4.17 13.02L3.30 13.02L0.42 3.78L1.18 3.78L3.74 12.45L6.16 3.78L6.97 3.78L9.39 12.46L11.98 3.78L12.70 3.78L9.81 13.02L8.95 13.02L7.08 6.54L6.57 4.54L6.55 4.54L6.03 6.54ZM22.27 12.38L28.11 12.38L28.11 13.02L21.57 13.02L21.57 3.78L27.89 3.78L27.89 4.42L22.27 4.42L22.27 7.99L26.71 7.99L26.71 8.65L22.27 8.65L22.27 12.38ZM51.38 3.64L51.38 3.64Q53.98 3.64 54.87 5.68L54.87 5.68L54.26 6.17L54.26 6.17Q53.91 5.18 53.22 4.73L53.22 4.73L53.22 4.73Q52.53 4.28 51.39 4.28L51.39 4.28L51.39 4.28Q50.58 4.28 49.98 4.54L49.98 4.54L49.98 4.54Q49.38 4.79 49.06 5.22L49.06 5.22L49.06 5.22Q48.75 5.66 48.75 6.20L48.75 6.20L48.75 6.20Q48.75 6.73 49.01 7.08L49.01 7.08L49.01 7.08Q49.28 7.43 49.92 7.68L49.92 7.68L49.92 7.68Q50.55 7.92 51.67 8.12L51.67 8.12L51.67 8.12Q53.48 8.43 54.24 9.02L54.24 9.02L54.24 9.02Q54.99 9.60 54.99 10.64L54.99 10.64L54.99 10.64Q54.99 11.38 54.56 11.96L54.56 11.96L54.56 11.96Q54.12 12.53 53.33 12.84L53.33 12.84L53.33 12.84Q52.54 13.16 51.52 13.16L51.52 13.16L51.52 13.16Q50.06 13.16 49.06 12.58L49.06 12.58L49.06 12.58Q48.06 12.00 47.70 10.95L47.70 10.95L48.31 10.47L48.31 10.47Q48.59 11.47 49.44 11.99L49.44 11.99L49.44 11.99Q50.29 12.52 51.53 12.52L51.53 12.52L51.53 12.52Q52.74 12.52 53.50 12.03L53.50 12.03L53.50 12.03Q54.26 11.54 54.26 10.68L54.26 10.68L54.26 10.68Q54.26 9.94 53.64 9.51L53.64 9.51L53.64 9.51Q53.02 9.07 51.48 8.81L51.48 8.81L51.48 8.81Q50.18 8.58 49.42 8.26L49.42 8.26L49.42 8.26Q48.66 7.94 48.34 7.46L48.34 7.46L48.34 7.46Q48.01 6.99 48.01 6.27L48.01 6.27L48.01 6.27Q48.01 5.56 48.42 4.96L48.42 4.96L48.42 4.96Q48.83 4.35 49.59 4.00L49.59 4.00L49.59 4.00Q50.36 3.64 51.38 3.64L51.38 3.64ZM64.89 12.38L70.73 12.38L70.73 13.02L64.19 13.02L64.19 3.78L70.50 3.78L70.50 4.42L64.89 4.42L64.89 7.99L69.33 7.99L69.33 8.65L64.89 8.65L64.89 12.38ZM80.46 12.38L86.00 12.38L86.00 13.02L79.76 13.02L79.76 3.78L80.46 3.78L80.46 12.38ZM95.47 12.38L101.01 12.38L101.01 13.02L94.77 13.02L94.77 3.78L95.47 3.78L95.47 12.38ZM126.63 13.02L125.47 10.12L121.04 10.12L119.90 13.02L119.15 13.02L122.85 3.78L123.68 3.78L127.37 13.02L126.63 13.02ZM121.31 9.48L125.22 9.48L123.61 5.45L123.27 4.47L123.26 4.47L122.92 5.42L121.31 9.48ZM143.19 3.78L143.19 13.02L142.32 13.02L137.42 5.77L136.74 4.54L136.72 4.54L136.77 5.70L136.77 13.02L136.09 13.02L136.09 3.78L136.98 3.78L141.86 11.02L142.56 12.26L142.53 11.10L142.53 3.78L143.19 3.78ZM159.08 3.78L155.81 9.42L155.81 13.02L155.11 13.02L155.11 9.42L151.83 3.78L152.66 3.78L155.46 8.69L158.26 3.78L159.08 3.78ZM179.28 3.78L179.28 13.02L178.58 13.02L178.58 3.78L179.28 3.78ZM192.11 3.78L192.11 3.78Q194.32 3.78 195.52 4.95L195.52 4.95L195.52 4.95Q196.71 6.12 196.71 8.33L196.71 8.33L196.71 8.33Q196.71 10.60 195.52 11.81L195.52 11.81L195.52 11.81Q194.32 13.02 192.11 13.02L192.11 13.02L189.20 13.02L189.20 3.78L192.11 3.78ZM192.16 12.38L192.16 12.38Q194.01 12.38 195.00 11.33L195.00 11.33L195.00 11.33Q195.99 10.29 195.99 8.33L195.99 8.33L195.99 8.33Q195.99 6.45 195.00 5.44L195.00 5.44L195.00 5.44Q194.01 4.42 192.16 4.42L192.16 4.42L189.90 4.42L189.90 12.38L192.16 12.38ZM206.75 12.38L212.59 12.38L212.59 13.02L206.05 13.02L206.05 3.78L212.37 3.78L212.37 4.42L206.75 4.42L206.75 7.99L211.19 7.99L211.19 8.65L206.75 8.65L206.75 12.38ZM227.91 13.02L226.74 10.12L222.32 10.12L221.17 13.02L220.43 13.02L224.13 3.78L224.95 3.78L228.65 13.02L227.91 13.02ZM222.59 9.48L226.49 9.48L224.88 5.45L224.55 4.47L224.53 4.47L224.20 5.42L222.59 9.48Z"></path></g></svg>